<svg xmlns="http://www.w3.org/2000/svg" width="40.965" height="48.582" viewBox="0 0 40.965 48.582">
  <g id="Group_394" data-name="Group 394" transform="translate(-239.527 -172.504)">
    <path id="Path_1861" data-name="Path 1861" d="M313.263,888.035h3.376l-.131.919h-2.9l-.113.759q.825.207,1.36.375t.849.3a1.769,1.769,0,0,1,.431.239q.117.1.108.178l-.2,1.378q-.131.891-1.491.891h-3.376l.131-.919h2.907l.113-.844a11.834,11.834,0,0,1-2.115-.6q-.661-.291-.642-.441l.188-1.322q.131-.919,1.5-.919m-5.5,0h3.376l-.131.919h-2.9l-.112.759q.825.207,1.36.375t.849.3a1.77,1.77,0,0,1,.431.239q.117.1.108.178l-.2,1.378q-.131.891-1.491.891h-3.376l.131-.919h2.907l.112-.844a11.835,11.835,0,0,1-2.115-.6q-.661-.291-.642-.441l.187-1.322Q306.39,888.035,307.759,888.035Zm-3,1.828h-2.288l.131-.909h2.9l.131-.919h-3.338a2.153,2.153,0,0,0-1.074.225.9.9,0,0,0-.455.685l-.45,3.226a.636.636,0,0,0,.253.684,1.812,1.812,0,0,0,1.013.225h3.338l.131-.919h-2.9l.188-1.369h2.288ZM294.6,888.035l-.713,5.045h1.838l.338-2.429,2.016,2.429h.2a1.459,1.459,0,0,0,.436-.066,1.3,1.3,0,0,0,.384-.192,1.207,1.207,0,0,0,.3-.309,1.28,1.28,0,0,0,.178-.427l.572-4.051H298.3l-.366,2.56-2.044-2.56Zm-5.616.919h1.444l-.581,4.126h1.838l.581-4.126h1.444l.131-.919h-4.726Zm-2.465-.919h1.838l-.713,5.045H285.8Zm-1.631,1.828H282.6l.131-.909h2.9l.131-.919h-3.338a2.152,2.152,0,0,0-1.074.225.9.9,0,0,0-.455.685l-.581,4.135h1.838l.319-2.288h2.288Z" transform="translate(-38.464 -674.873)" fill="#1c28cb"/>
    <path id="Path_1862" data-name="Path 1862" d="M396.407,991.542h1.064v.364h-.695v.35h.695v.358h-.695v.513h.695v.364h-1.064Zm-1.161.763h.118a.46.46,0,0,0,.246-.047.175.175,0,0,0,.067-.155.19.19,0,0,0-.033-.111.182.182,0,0,0-.09-.068.672.672,0,0,0-.206-.021h-.1Zm-.369-.763h.394a1.3,1.3,0,0,1,.46.057.471.471,0,0,1,.221.192.587.587,0,0,1,.084.317.54.54,0,0,1-.092.321.555.555,0,0,1-.277.2l.46.866h-.405l-.438-.825h-.038v.825h-.369Zm-1.411,0h1.064v.364h-.695v.35h.695v.358h-.695v.513h.695v.364h-1.064Zm-1.829,0h.377v.735h.651v-.735h.374v1.948h-.374v-.855h-.651v.855h-.377Zm-2.739,0h.352l.839,1.282v-1.282h.369v1.948H390.1l-.837-1.278v1.278H388.9Zm-1.2.518-.264.671h.527Zm-.187-.518h.374l.75,1.948h-.386l-.152-.4h-.8l-.156.4h-.386Zm-1.051.318-.261.258a.771.771,0,0,0-.577-.262.659.659,0,0,0-.481.19.624.624,0,0,0-.194.463.642.642,0,0,0,.2.478.685.685,0,0,0,.5.2.609.609,0,0,0,.324-.081.568.568,0,0,0,.213-.253h-.564V992.5h.979l0,.082a.954.954,0,0,1-.133.485.931.931,0,0,1-.343.349.983.983,0,0,1-.495.12,1.1,1.1,0,0,1-.541-.132.97.97,0,0,1-.377-.375,1.048,1.048,0,0,1-.138-.526.976.976,0,0,1,.256-.672,1.008,1.008,0,0,1,.79-.34,1.2,1.2,0,0,1,.476.094A1.1,1.1,0,0,1,386.456,991.86Zm-3.145,0a.608.608,0,0,0-.453.188.655.655,0,0,0-.184.478.623.623,0,0,0,.231.511.631.631,0,0,0,.412.147.6.6,0,0,0,.447-.191.688.688,0,0,0,0-.94A.605.605,0,0,0,383.311,991.857Zm.005-.364a.967.967,0,0,1,.71.3,1,1,0,0,1,.3.729.984.984,0,0,1-.293.722,1.016,1.016,0,0,1-1.44-.008,1.023,1.023,0,0,1,.726-1.742Zm-2.093.049h.369v1.6h.545v.353h-.914Zm-.363.265-.275.242a.39.39,0,0,0-.294-.2.18.18,0,0,0-.119.039.114.114,0,0,0-.047.088.15.15,0,0,0,.033.093,2.524,2.524,0,0,0,.273.25q.212.178.258.224a.788.788,0,0,1,.16.218.55.55,0,0,1,.047.227.52.52,0,0,1-.166.4.6.6,0,0,1-.433.156.645.645,0,0,1-.363-.1.809.809,0,0,1-.265-.321l.313-.188q.141.258.324.258a.239.239,0,0,0,.161-.056.165.165,0,0,0,.065-.128.222.222,0,0,0-.049-.133,1.419,1.419,0,0,0-.217-.2,2.171,2.171,0,0,1-.412-.4.509.509,0,0,1-.093-.281.459.459,0,0,1,.154-.347.535.535,0,0,1,.381-.145.6.6,0,0,1,.278.067A1.01,1.01,0,0,1,380.86,991.807Zm-2.94.5h.118a.46.46,0,0,0,.246-.047.176.176,0,0,0,.067-.155.189.189,0,0,0-.034-.111.182.182,0,0,0-.089-.068.672.672,0,0,0-.206-.021h-.1Zm-.369-.763h.394a1.3,1.3,0,0,1,.46.057.47.47,0,0,1,.221.192.586.586,0,0,1,.084.317.54.54,0,0,1-.092.321.555.555,0,0,1-.277.2l.46.866H378.4l-.438-.825h-.038v.825h-.369Zm-1.753,0h.372v1.26a.652.652,0,0,0,.028.23.229.229,0,0,0,.094.108.3.3,0,0,0,.158.04.307.307,0,0,0,.169-.045.235.235,0,0,0,.1-.115.85.85,0,0,0,.027-.265v-1.214h.372V992.7a1.685,1.685,0,0,1-.033.408.626.626,0,0,1-.342.376.73.73,0,0,1-.283.051.687.687,0,0,1-.369-.1.566.566,0,0,1-.225-.244,1.291,1.291,0,0,1-.067-.495Zm-1.33.315a.608.608,0,0,0-.453.188.655.655,0,0,0-.184.478.623.623,0,0,0,.231.511.631.631,0,0,0,.412.147.6.6,0,0,0,.447-.191.688.688,0,0,0,0-.94A.605.605,0,0,0,374.468,991.857Zm.005-.364a.966.966,0,0,1,.71.3,1,1,0,0,1,.3.729.984.984,0,0,1-.293.722,1.016,1.016,0,0,1-1.44-.008,1.023,1.023,0,0,1,.726-1.742Zm-2.719.049h.4l.362.7.362-.7h.4l-.571,1.1v.844h-.374v-.844Z" transform="translate(-124.715 -772.453)" fill="#1c28cb"/>
    <path id="Path_1863" data-name="Path 1863" d="M278.214,991.493h4.4v2Z" transform="translate(-36.489 -772.453)" fill="#1c28cb" fill-rule="evenodd"/>
    <path id="Path_1864" data-name="Path 1864" d="M848.684,991.493h-4.4v2Z" transform="translate(-570.39 -772.453)" fill="#1c28cb" fill-rule="evenodd"/>
    <path id="Path_1865" data-name="Path 1865" d="M239.533,175.984a41.493,41.493,0,0,0,20.476,36.486,41.493,41.493,0,0,0,20.476-36.486c-13.651-4.472-27.3-4.8-40.953,0" transform="translate(0 0)" fill="#1c28cb" fill-rule="evenodd"/>
    <path id="Path_1866" data-name="Path 1866" d="M476.56,784.252a41.874,41.874,0,0,0,7.014,5.2,41.876,41.876,0,0,0,7.014-5.2Z" transform="translate(-223.564 -576.987)" fill="#fff" fill-rule="evenodd"/>
    <path id="Path_1867" data-name="Path 1867" d="M287.88,223.229a38.761,38.761,0,0,0,17.735,31.319,38.762,38.762,0,0,0,17.734-31.279,58.985,58.985,0,0,0-35.469-.04" transform="translate(-45.605 -45.287)" fill="#fff" fill-rule="evenodd"/>
    <path id="Path_1868" data-name="Path 1868" d="M306.466,242.749q.083,1.568.3,3.125A37.887,37.887,0,0,0,323.146,272.1a37.887,37.887,0,0,0,16.383-26.223q.21-1.529.294-3.073a57.868,57.868,0,0,0-33.357-.053" transform="translate(-63.135 -63.961)" fill="#e6e6e6" fill-rule="evenodd"/>
    <path id="Path_1869" data-name="Path 1869" d="M322.309,269.61q-.084,1.541-.294,3.073a37.887,37.887,0,0,1-16.383,26.223,37.887,37.887,0,0,1-16.383-26.223q-.214-1.556-.3-3.125l.043-.013-1.1-.8a38.761,38.761,0,0,0,17.734,31.289,38.762,38.762,0,0,0,17.731-31.191l-1.06.768.007,0" transform="translate(-45.621 -90.769)" fill="#b3b3b3" fill-rule="evenodd"/>
    <path id="Path_1870" data-name="Path 1870" d="M340.793,277.33a7.629,7.629,0,0,1-1.54.977,12.982,12.982,0,0,0-1.311,1.768,3.57,3.57,0,0,0-.334.712.6.6,0,0,0,.2.206c.147.056.293.114.436.179.34-.217.671-.447.991-.691a9.368,9.368,0,0,0,.949-.817,12.159,12.159,0,0,1,1.185-1.619c-.2-.229-.4-.467-.576-.714m-6.432,5.289c-.209.09-.41.192-.589.286-.925.487-1.8,1.07-2.713,1.575-2.31,1.275-4.679,1.952-7.078.444l-1.089-.684.623-1.125a4.035,4.035,0,0,0,.189-.425c.094-.231.187-.463.289-.69a3.841,3.841,0,0,1,.915-1.366l.435-2.412,0-.013.064-.32.7-3.9c-.137-.328-.253-.664-.357-1-.179-.586-.322-1.182-.445-1.782-.258-1.255-.436-2.524-.577-3.8-4.048-1.189-6.559-4.173-7.907-8.142l-.232-.684.438-.575a16.754,16.754,0,0,1,6.084-5,7.372,7.372,0,0,0,1.424-1.155l.226-.256.321-.118a4.345,4.345,0,0,1,1.153-.254h.013a5.439,5.439,0,0,1,2.243.329,7.435,7.435,0,0,1,1.839.906l.1.046.162.075.137.114a1.853,1.853,0,0,1,.648,1.485,3.924,3.924,0,0,1-.3,2.461l-.254.51-.541.176a2.613,2.613,0,0,1-1.492.1,2.751,2.751,0,0,1-.878-.19,1.917,1.917,0,0,1-.872-.321,1.978,1.978,0,0,1-.631-.313,5.93,5.93,0,0,0-.5.724c-.116.275-.241.548-.379.815a3.478,3.478,0,0,1,2.176,1.652,6.361,6.361,0,0,1,1.977.369,5.356,5.356,0,0,1,.56.245l.1-.208q-.058-.128-.109-.26a1.455,1.455,0,0,1-.087-.3,1.65,1.65,0,0,1,.922-1.715,5.256,5.256,0,0,1,.573-.295A5.517,5.517,0,0,1,332.83,256a4.816,4.816,0,0,1-.264-1.377l-.125-1.882,1.1.617c.092-.162.2-.321.3-.487l1.087-1.695.724,1.879c.272.706,2.151,1.287,2.817,1.5a4.583,4.583,0,0,1,3.043,2.808,5.607,5.607,0,0,1-.17,4.026,5.848,5.848,0,0,1-1.715,2.324,3.25,3.25,0,0,0-.26.36.757.757,0,0,0-.07.126c.484.258.962.527,1.425.82.207.131.413.264.616.4.126.086.251.174.373.266a5.172,5.172,0,0,1,4.451,4.423,5.39,5.39,0,0,1,1.923,4.139c.716,1.528,1.592,3.688,1.347,5.344l-.076.515-.4.335-.12.1-.06.049a30.338,30.338,0,0,1-9.04,5.078c-.082.061-.165.119-.251.174-.164.106-.334.2-.507.29-.241.127-.483.25-.724.376a2,2,0,0,1-2.229-.111,1.925,1.925,0,0,1-1.038-1.062,1.949,1.949,0,0,1-.365-.509,2.029,2.029,0,0,1-.186-.579,1.733,1.733,0,0,1-.241-.815A1.677,1.677,0,0,1,334.361,282.619Z" transform="translate(-72.682 -74.2)" fill="#fff" fill-rule="evenodd"/>
    <path id="Path_1871" data-name="Path 1871" d="M354.446,289.347a8.6,8.6,0,0,1-1.328-1.693,7.95,7.95,0,0,1-2.085,1.417,14.233,14.233,0,0,0-1.474,1.973,2.7,2.7,0,0,0-.438,1.154,1.254,1.254,0,0,0,.576.69,5.19,5.19,0,0,1,.761.34,15.431,15.431,0,0,0,1.356-.922,9.844,9.844,0,0,0,1.071-.931,11.143,11.143,0,0,1,1.561-2.028m-10.175-14.493a2.059,2.059,0,0,0,1.117.941c-.011-.078-.023-.156-.039-.234a.68.68,0,0,0-.681-.649C344.537,274.9,344.4,274.878,344.271,274.854Zm-1.409-2.134a1.328,1.328,0,0,1,.221-.229l-.016-.6.193-.407a4.268,4.268,0,0,1-.228-.5.8.8,0,0,1-.051-.171,1.022,1.022,0,0,1,.614-1.036,5.3,5.3,0,0,1,.738-.358,5.03,5.03,0,0,1,1.48-1.965,3.417,3.417,0,0,1-.412-1.574l-.044-.671.693.391a2.945,2.945,0,0,1,.521-1.075l.387-.6.258.669c.387,1,2.29,1.589,3.231,1.888a3.93,3.93,0,0,1,2.625,2.407,4.956,4.956,0,0,1-.16,3.549,5.175,5.175,0,0,1-1.571,2.1,4.207,4.207,0,0,0-.359.491.822.822,0,0,0-.066.914c.555.29,1.1.592,1.632.927.2.127.4.256.6.39.168.115.336.233.493.362a4.317,4.317,0,0,1,2.84,1.368,4.271,4.271,0,0,1,1.225,2.725,4.787,4.787,0,0,1,1.893,3.958c.665,1.4,1.59,3.582,1.363,5.12l-.039.266-.208.173-.119.1-.06.049a29.684,29.684,0,0,1-8.938,5c-.1.073-.193.143-.293.209-.147.1-.3.179-.455.26-.24.126-.482.25-.722.375a1.325,1.325,0,0,1-1.574-.1,10.38,10.38,0,0,1-1.165-1.294,1.368,1.368,0,0,1-.14-.519,1.075,1.075,0,0,1-.219-.608,1.053,1.053,0,0,1,.586-.98,2.163,2.163,0,0,1-.152-.532,1.63,1.63,0,0,1-.017-.2,4.987,4.987,0,0,0-1.8.631c-.929.489-1.8,1.074-2.724,1.582-2.087,1.152-4.232,1.833-6.412.463l-.563-.354.322-.581a4.64,4.64,0,0,0,.223-.495c.092-.224.181-.45.28-.671a2.836,2.836,0,0,1,.916-1.264l.509-2.821,0-.007.033-.164.484-2.684.032.1.278-1.4a9.169,9.169,0,0,1-.465-1.236c-.173-.566-.311-1.143-.43-1.722-.283-1.381-.469-2.779-.616-4.18-4.077-1.039-6.56-3.923-7.89-7.839L329.5,270l.226-.3a16.084,16.084,0,0,1,5.888-4.83,8.166,8.166,0,0,0,1.589-1.292l.117-.132.166-.061a3.7,3.7,0,0,1,.979-.215h.013a4.78,4.78,0,0,1,1.981.3,6.832,6.832,0,0,1,1.737.865c.047.019.094.039.14.061l.084.039.071.059a1.2,1.2,0,0,1,.408,1.022,3.3,3.3,0,0,1-.226,2.126l-.131.263-.28.091a1.921,1.921,0,0,1-1.178.071,2.083,2.083,0,0,1-.82-.181,1.254,1.254,0,0,1-.746-.281,1.3,1.3,0,0,1-.928-.718,8.134,8.134,0,0,0-1.085,1.441,8.4,8.4,0,0,1-.83,1.568,5.387,5.387,0,0,1,.641.109l.056.013a2.8,2.8,0,0,1,2.1,1.719,5.927,5.927,0,0,1,2.175.331A5.647,5.647,0,0,1,342.863,272.721Z" transform="translate(-84.863 -85.504)" fill="#0a273d" fill-rule="evenodd"/>
    <path id="Path_1872" data-name="Path 1872" d="M376.616,300.566c.911,1.3,1.414,2,1.63,2.286-.585-1.222-.891-2.052-1.046-2.352a.884.884,0,0,0,.623-.111c-.483-.116-1.353-1.442-1.489-1.687a3.822,3.822,0,0,1-.722,2.624,1.247,1.247,0,0,0,1-.759m1.239,2.778h.543l-.871,1.009q-.692.266-2.864,1.325Zm-16.418-3.216c.894-1.809,1.73-1.764.567-2.577-.287-.2-.493-.428-.66-.561C360.737,297.3,360.8,299.425,361.436,300.127Zm-.079.158a10.047,10.047,0,0,1-.923-.763c-.125.606-.594.838.477,1.941A6.124,6.124,0,0,1,361.357,300.285Zm-.554,1.483a7.764,7.764,0,0,1-.822-.739c-.067.812-.91,1.163.474,2.331A2.565,2.565,0,0,1,360.8,301.768Zm-.536,2.43a2.174,2.174,0,0,0-.732-.87c-.266,2.029,0,2.227.685,2.6C359.727,305.527,360.162,304.72,360.268,304.2Zm8.326-1.1c1.184-.74,3.133-2.791,1.673-3.454a1.4,1.4,0,0,0-.726-.036A3.945,3.945,0,0,1,368.594,303.1Zm-7.222-.818c-1.334,2.742,2.863,2.233,5.24-.419-.162,1.555-4.915,3.557-5.934,2.763-1.046,2.081,1.8.862,2.579.7a12.538,12.538,0,0,1-3.416,1.426,2.116,2.116,0,0,1-.765.81,1.36,1.36,0,0,1-.357.116c.86-1.971-.165-2.933.35-5a2.688,2.688,0,0,1,.5-2.247,2.072,2.072,0,0,1,.482-1.613c-.1-1.233.662-1.578.178-3.849-.422,4.069-2.482,5.555-1.544,11.069l-.678-2L357.4,307.4a.829.829,0,0,0,.6.751,5.624,5.624,0,0,1,.141-2.007,4.072,4.072,0,0,0,.48,2.092,8.839,8.839,0,0,0,2.224-.411c.874-.343,4.906-2.87,3.513-3.437l1.489-.858c-.392.408-1.905,2.6-.857,2.139,2.225-.979-1.709,1.176-1.446,1.364.083.06,1.474-.493,1.922-.575,1.7-2.29,3.211-3.991,2.439-3.784-2.433.653,1.562-1.484.176-2.878a5.366,5.366,0,0,1-2.407-.384c-2.006-.815-2.175-.885-2.992.168-.791,1.019,2.777,1.433,3.381,1.279-.392.437-1.868.934-3.987-.326-1.439,2.156,2.056,2.1,2.935,1.988C364.178,302.988,362.082,303.014,361.372,302.284Zm6.741,1.645-1.7,2.25a3.324,3.324,0,0,1,1.039.053,5.962,5.962,0,0,1,.509-1.057A11.033,11.033,0,0,0,368.113,303.928Zm-9.445-6.475a11.2,11.2,0,0,1-.868-5.094C358.456,293.4,359.809,295.872,358.668,297.453Zm5.55-5.682a2.953,2.953,0,0,0-2.7.5,2.781,2.781,0,0,1,2.812-1.039c-1.221-.252-2.4-2.289-3.354-3.232a3.577,3.577,0,0,1,1.008.669c-.729-1.732-3.859-1.865-5.561-1.427a2.712,2.712,0,0,1,1.479-.49,2.444,2.444,0,0,0-2.9-1.364,3.724,3.724,0,0,1-2.78-.177,3.263,3.263,0,0,0,2.031-1.766l.126.4a6.072,6.072,0,0,0,1.728-2.321l-1.993,1.337a23.73,23.73,0,0,1,2.41-1.905l.208-1.331.246.315a1.7,1.7,0,0,1,.4-.82l.052.37.3.12.468.658h0l.344.486-.229-.129-.023.483a.619.619,0,0,0,.51.4,1.792,1.792,0,0,0,.112-1.281.43.43,0,0,1,.2.263,1.6,1.6,0,0,1,0,1.2.763.763,0,0,0,.416.085,3.511,3.511,0,0,0,.234-1.31,1.142,1.142,0,0,1,.235.589,2.8,2.8,0,0,1-.215.83,1.709,1.709,0,0,0,.535.066.453.453,0,0,0,.054.025,2.439,2.439,0,0,0,.16-1.683,3.931,3.931,0,0,1,.314.556,3.12,3.12,0,0,1-.2,1.164h-.009a1.84,1.84,0,0,0,.5-.1,2.652,2.652,0,0,0,.142-1.792s-.453-.531-.865-.161a.861.861,0,0,0-1.025-.058c.063-.279.628-.3.807-.264l.093-.04a4.214,4.214,0,0,0-2.7-.967c-.877.586-2.424,1.529-4.725,3.179a8.734,8.734,0,0,0-.744,1.88l-.1-.833c-1.247.7-1.025.972.227,2.019a2.71,2.71,0,0,1-1.06-.732c-1.325,1.288,1.156,1.993,2.271,1.728q-1.755,1.213-3.709-.833.78,2.405,4.138,3.533a2.976,2.976,0,0,1-1.741-.353q1.288,2.565,4.693,2.069l-.908-1.287a7.5,7.5,0,0,0,2.069,1.438,3.263,3.263,0,0,0,.355-1.261l-.98-.019a3.96,3.96,0,0,1-3.558-3.381,4.82,4.82,0,0,0,1.035,1.489l.05-.353c.486,1.106,1.3,1.507,2.738,1.773a3.439,3.439,0,0,0-1.009-.524c1.8-.378,1.819,1.082,1.8-.675.489,1.779,1.385,1.236,1.817,2.675a1.844,1.844,0,0,0-1.287-.732,2.006,2.006,0,0,0,.451,1.742c.978,1.348.671.268.794-.626a3.436,3.436,0,0,0,1.457,2.612,3.1,3.1,0,0,1-1.436-.874c-.7.387.682,1.972,1.429,2.072a4.4,4.4,0,0,1-.731,0c.487,1.076.94,2.276,1.679,2.634.488.236.824-.044.886-.549,0-.019,0-.037.007-.056a1.741,1.741,0,0,1-1.191-.439q.656.309,1.419-.516l-.71-.094C363.266,295.294,366.147,292.12,364.218,291.771Zm5.555,1.368c.541.639,1.968,3.93,3.88,4.031-.2,1.27,1.372-.143,1.743-.557-.9,1.417-1.4,2.133-2.853,1.365-.3.836.324,1.646.947,2.3a5.992,5.992,0,0,0,1.93,1.217l1.236.9-1.438.1a6.767,6.767,0,0,1-3.078,5,7.932,7.932,0,0,0,2.032-3.306,12.633,12.633,0,0,0-1.5,1.981,10.134,10.134,0,0,1-3,2.365.941.941,0,0,1,.208.494,2.258,2.258,0,0,0-.727-.568c-.589-.3-1.093-.262-1.632-1.282-.388,0-.378.625.012,1.206l.04.311.47-.273-.49.119.02.154-.521.235a.341.341,0,0,0,.067.664c-.215.2,0,.842.418.795-.194.313.193.762.526.667.031.291.4.365.826.142a7.068,7.068,0,0,0,1.5-.885l-.082-.027a2.628,2.628,0,0,1-2.245.626,2.872,2.872,0,0,0,1.734-.81h0a.67.67,0,0,1-.239-.143c.9.07,1.756-.443,3.676-1.825a5.136,5.136,0,0,0-2.188,1c.79-1.363,4.074-1.736,6.763-4.719-1,1.174-.545,1.256-.693,1.378,1.506-.867,1.718-1.066,1.6-2.615l.516,2.2.117-.1q.226-1.535-1.388-4.9a3.983,3.983,0,0,0-1.649-3.564,2.274,2.274,0,0,1-.786,1.04,3.175,3.175,0,0,0,.553-1.405c-.1-2.542-3.218-4.428-4.758-2.817a1.728,1.728,0,0,1,.907-.876,13.922,13.922,0,0,0-2.732-1.7,1.519,1.519,0,0,1-.148-1.586c-.264-.127-.336.067-.312.2-.381-.212-.505-.8-.6-1.209a.718.718,0,0,0-.148.429c-.534-.807-.056-1.089.095-1.888a.84.84,0,0,1-.453.381c-.506.167-1.409.713-1.267-.331.235.724.83.291,1.145.074,1.22-.838.28-1.889-.065-1.49-.256.3.21,1.034-.3.994a.237.237,0,0,0-.252.331c-.208-.028-.207-.365-.144-.447.2-.265.553-.076.359-.5a.911.911,0,0,1,.167-.606c-.588.107-.914,1.949-.992,1a6.279,6.279,0,0,1,.43-2.243.738.738,0,0,0-.253.034,1.455,1.455,0,0,1,1.064-1.17,2.281,2.281,0,0,1,1.383.49l-.13-.344c.723.424,1.128.54,1.427.912a1.869,1.869,0,0,0-.31-.65,2.479,2.479,0,0,1,1.3,1.9c.52-2.145-1.79-3.225-2.431-3.413a2.453,2.453,0,0,1,.477.694c-1.328-1.394-3.143-1.169-3.609-2.43a3.63,3.63,0,0,0,.41,1.48,3.876,3.876,0,0,1-.719-.275c.258.65,1.322,1.08,2.273,1.467a3.567,3.567,0,0,1-2.069-.655,4.914,4.914,0,0,0-1.829,2.334q-1.347.516-1.219.766a4.139,4.139,0,0,0,.371.733l-.24.5.005.01-.006.15-.037.736c-.9.71.292,1.369,1.1,1.086.739-.259,1.546-.954,2.5-.859-.915.222-1.585.44-1.438,1.036l-.418.07.83.73c.631.544-.718.1.386,1.688a13.436,13.436,0,0,0,1.127-2.472,17.891,17.891,0,0,1-.8,3.4c0,.005,2.393.413,2.705.433-1.438.374-3.967-.12-3.47,2.688l-.4-.268c.071.479-.2,1.153.486,1.81a1.294,1.294,0,0,1-1.264-.58q-.048.171-.093.349c-.465,1.844,3.1,2.311,4.295,2.384q2.007-.239,2.462-1.56C371.284,296.162,370.216,294.275,369.773,293.139Z" transform="translate(-103.953 -100.093)" fill="#fff" fill-rule="evenodd"/>
    <path id="Path_1873" data-name="Path 1873" d="M367.931,291.392c-.352.116-.895.415-1.146.236a.958.958,0,0,0,.123.24c.319.428.559-.234,1.079-.3.147-.01-.061.2-.1.613a1.819,1.819,0,0,0,.409,1.249,1.677,1.677,0,0,0,.074-.389,3.684,3.684,0,0,0,.887,1.5,1.43,1.43,0,0,1,.1-1.063c-.264-.127-.336.067-.312.2-.381-.212-.505-.8-.6-1.209a.718.718,0,0,0-.148.429,1.191,1.191,0,0,1-.246-.721c.015-.359.244-.658.34-1.167a.84.84,0,0,1-.453.381m1.878,3.832a5.294,5.294,0,0,1,1.819,1.967,1.508,1.508,0,0,1,.606-.426A12.734,12.734,0,0,0,369.809,295.225Zm-2.859.194c-.1-.225.05-1.169,0-2.7a17.882,17.882,0,0,1-.8,3.4c0,.005,2.393.413,2.705.433C367.844,296.342,367.058,296.008,366.95,295.419Zm7.409,4.747q-2.258,0-4.5-2.909c.6.847,1.976,3.819,3.791,3.914-.2,1.27,1.372-.143,1.743-.557a1.094,1.094,0,0,1-1.331.276Zm-11.388-.549c-.883.287-1.261-.327-1.454-.878a2.368,2.368,0,0,0,1.447-.4,2.867,2.867,0,0,1-2.854-1.957c-.414.5.84,1.889,1.539,1.983a4.4,4.4,0,0,1-.731,0c.487,1.076.94,2.276,1.679,2.634.488.236.824-.044.886-.549l.007-.056a1.741,1.741,0,0,1-1.191-.439q.656.309,1.419-.516l-.71-.094c.216-.038,2.3-2.306,1.788-3.222-.323,1.509-1.6,3.083-2.589,3.264A1.985,1.985,0,0,0,362.971,299.617Zm-6.643-6.037a5.767,5.767,0,0,1-4.189-1.354q1.288,2.565,4.693,2.069Zm-3.472-1.4a10.736,10.736,0,0,0,1.024.4,3.15,3.15,0,0,0,1.387.115,7.357,7.357,0,0,1-1.485-.515,9.658,9.658,0,0,1-2.954-2.238,5.216,5.216,0,0,1-1.085-.894,4.635,4.635,0,0,0,1.632,2.255A11.683,11.683,0,0,0,352.857,292.178Zm7.383,1.99c.226-1.235-.648-1.293-1.266-1.99a2.107,2.107,0,0,1-.48-.968c-.118,0-.115.272-.075.552a.623.623,0,0,1-.271.254,3.175,3.175,0,0,0-1.9-.255l.2.188a2.7,2.7,0,0,1-1.567-1.568l-.067.255a2.868,2.868,0,0,1-.967-.813,5.086,5.086,0,0,1,2.86-.288,2.5,2.5,0,0,0-1.7-.141,3.725,3.725,0,0,1-2.78-.177,3.263,3.263,0,0,0,2.031-1.766l.126.4a6.072,6.072,0,0,0,1.728-2.321l-1.993,1.337a23.713,23.713,0,0,1,2.41-1.905l.208-1.331a16.949,16.949,0,0,1-3.649,3.7l.911-.107a4.17,4.17,0,0,1-2.891,2.179,2.973,2.973,0,0,0,1.569.52,4.693,4.693,0,0,0,.6-.013c.063-.008.123-.019.18-.033l-.024.016c.139-.017.27-.041.393-.067l-.01-.044a4.819,4.819,0,0,0,1.035,1.489l.05-.353a2.5,2.5,0,0,0,1.109,1.259,5.328,5.328,0,0,0,1.629.514,3.271,3.271,0,0,0-.99-.514l-.019-.01a2.353,2.353,0,0,1,1.151.01c.482.137.613.379.642,0,.008-.1.009-.237.007-.431,0-.076,0-.16,0-.254a3.514,3.514,0,0,0,.258.685C359.183,293.151,359.876,292.956,360.24,294.168Zm2.046,3.152a5.384,5.384,0,0,1-2.087-2.767,3.436,3.436,0,0,0,1.457,2.612,1.918,1.918,0,0,1-.3-.095A3.971,3.971,0,0,0,362.286,297.32Zm10.384,12.844a4.54,4.54,0,0,1,1.022-.77,5.089,5.089,0,0,0,.478-1.208A12.632,12.632,0,0,0,372.671,310.164Zm.568,1.968a5.135,5.135,0,0,0-2.188,1c.79-1.363,4.074-1.736,6.763-4.719-1,1.174-.545,1.256-.693,1.378,1.506-.867,1.718-1.066,1.6-2.615l.516,2.2.117-.1a8.175,8.175,0,0,0-.963-3.969,4.647,4.647,0,0,1-.18,3.177l-.054-.469a42.868,42.868,0,0,1-6.3,3.8l-1.393.965.509-.054a1.647,1.647,0,0,1-1.42.965,1.956,1.956,0,0,1-2.017,1.08.485.485,0,0,0,.522.271.3.3,0,0,0,.036.116c.107.19.427.215.79.026a7.071,7.071,0,0,0,1.5-.885l-.02-.006-.063-.02a2.237,2.237,0,0,1-.384.284,2.917,2.917,0,0,1-.286.15,2.42,2.42,0,0,1-1.576.192,2.871,2.871,0,0,0,1.734-.81h0a.672.672,0,0,1-.239-.143C370.46,314.027,371.319,313.514,373.239,312.132Zm2.829-10.825a5.77,5.77,0,0,1,1.9,3.081,3.984,3.984,0,0,0-1.649-3.564A2.583,2.583,0,0,1,376.068,301.307Zm1.264,3.479a1.152,1.152,0,0,0,.492-.4.884.884,0,0,1-.623.111C377.235,304.568,377.279,304.664,377.331,304.786Zm-1.719.539a1.527,1.527,0,0,0,1.012-.107l.961.723c-.252-.355-.572-.808-.969-1.375A1.247,1.247,0,0,1,375.612,305.325Zm-.748-3.916a1.522,1.522,0,0,1-2.323.569c-.3.836.324,1.646.947,2.3a5.991,5.991,0,0,0,1.93,1.217l1.236.9-1.438.1a5.935,5.935,0,0,1-1.667,3.722,7.688,7.688,0,0,0,2.137-3.463l.968-.361C372.148,302.6,373.807,304.114,374.865,301.409Zm-12.178,2.176c-.791,1.019,2.777,1.433,3.381,1.279q-2.9-.1-2.754-1.934A2.788,2.788,0,0,0,362.686,303.585Zm-.606.954c-1.439,2.156,2.056,2.1,2.935,1.988Q362.575,306.551,362.08,304.539Zm-.708,1.745c-1.03,2.117,1.237,2.3,3.418,1.047Q361.8,308.612,361.372,306.284Zm1.885,3.042q-2.046.21-2.579-.7C359.631,310.71,362.476,309.491,363.257,309.326Zm1.107-.935c.91.422-2.668,2.966-5.785,3.78q.023.036.048.067a8.838,8.838,0,0,0,2.224-.411C361.724,311.486,365.756,308.958,364.364,308.392Zm.969,1.138c-.672-.1-.082-.937.4-1.854-.51.623-1.691,2.419-.733,2C365.129,309.614,365.241,309.567,365.332,309.529Zm2.577-2.85c-2.433.653,1.562-1.484.176-2.878q.584.9-1.968,3.667.152.368,1.139-.04a6.165,6.165,0,0,1-3.626,3.454c-.081.077-.115.133-.082.156.083.06,1.474-.493,1.922-.575C367.166,308.173,368.681,306.472,367.91,306.679Zm2.01-.7c.8-.867,1.3-1.9.347-2.332a1.4,1.4,0,0,0-.726-.036C370.492,304.126,370.577,304.717,369.92,305.98Zm-2.538-9.213c-1.208.159-2.348.5-2,2.474l-.4-.268c.071.479-.2,1.153.486,1.81a1.294,1.294,0,0,1-1.264-.58q-.048.171-.093.349c-.465,1.844,3.1,2.311,4.295,2.384q2.007-.24,2.462-1.56a2.171,2.171,0,0,0,.076-.948,14.4,14.4,0,0,0-1.169-3.29c.763,1.975,1.82,4.705-1.088,5.088-1.988.261-4.391-.443-3.177-.693.76-.157.18-1.2.056-1.884,0,0,.589.631.871.924C365.9,299.012,364.991,297.512,367.382,296.767Zm-7.347-1.232q-1.11-1.564-.652-2a2.273,2.273,0,0,0-.43-.1,2.006,2.006,0,0,0,.451,1.742c.743,1.023.745.648.756.017Zm-2.236.825a9.242,9.242,0,0,1,.673,4.675,3.117,3.117,0,0,0,.2.419C359.809,299.873,358.456,297.4,357.8,296.36Zm3.544,4.63c-.607.308-.546,2.435.093,3.138a7.515,7.515,0,0,1,.369-.661A2.847,2.847,0,0,1,361.344,300.99Zm-.909,2.533c-.124.606-.594.838.477,1.941.034-.131.071-.253.11-.371A1.853,1.853,0,0,1,360.435,303.523Zm-.454,1.507c-.068.812-.91,1.163.474,2.331a1.7,1.7,0,0,1-.01-.481A3.51,3.51,0,0,1,359.981,305.03Zm.019,4.207a3.593,3.593,0,0,1-.464-1.908c-.266,2.029,0,2.227.685,2.6A.724.724,0,0,1,360,309.237Zm6.463-17.567c-1.249-.17-3.4,1.27-3.743-.093a.475.475,0,0,0-.113.6,1.246,1.246,0,0,0,1.358.351,5.963,5.963,0,0,0,.75-.351A3.154,3.154,0,0,1,366.462,291.67Zm-.46-2.829a2.144,2.144,0,0,1,.5-.295,3.907,3.907,0,0,0,.1,2.043,1.378,1.378,0,0,1-.024-.179,6.279,6.279,0,0,1,.43-2.244.738.738,0,0,0-.253.034,1.3,1.3,0,0,1,1.427-1.133.8.8,0,0,0-.293-.2,3.566,3.566,0,0,1-2.069-.655q-.077.058-.155.119a2.9,2.9,0,0,0,1.6.892A2.343,2.343,0,0,0,366,288.841Zm-7.142-3.461a.289.289,0,0,1-.163-.288l.027-.4a3.4,3.4,0,0,0-1.045-1.393l-.174-.429a.673.673,0,0,0-.378.636,2.187,2.187,0,0,1,.253-.376l.052.37.3.12.468.658h0l.344.486-.229-.129-.023.483a.676.676,0,0,0,.138.216.618.618,0,0,0,.323.173l.049.009C358.821,285.471,358.841,285.427,358.86,285.381Zm.75.168a.529.529,0,0,1-.229-.228,1.539,1.539,0,0,0-.265-.823,1.584,1.584,0,0,1,.021,1.126q-.012.035-.026.071a.763.763,0,0,0,.416.085l.016-.04C359.568,285.676,359.59,285.613,359.61,285.549Zm.85.193a.93.93,0,0,1-.242-.193,1,1,0,0,0-.27-.739.573.573,0,0,1,.049.249,2.7,2.7,0,0,1-.178.738c-.012.031-.024.062-.037.092a1.708,1.708,0,0,0,.535.066.452.452,0,0,0,.054.025l.038-.1C360.426,285.835,360.444,285.788,360.46,285.742Zm.515-.106a1,1,0,0,0-.122-.616,3.473,3.473,0,0,1-.167.859l-.041.14a1.864,1.864,0,0,0,.492-.1q.036-.072.066-.146A.338.338,0,0,1,360.975,285.636Zm5.014,7.968q-.536-.09-.73-1.2a1.265,1.265,0,0,1,.292-.227q.285-.184.837-.49a2.881,2.881,0,0,0-1.217.49.511.511,0,0,0-.145.528l-.418.07.83.73c.631.544-.718.1.386,1.688a9.828,9.828,0,0,0,.591-1.134.764.764,0,0,1-.452.167A1.578,1.578,0,0,1,365.989,293.6Z" transform="translate(-103.953 -104.094)" fill="#b3b3b3" fill-rule="evenodd"/>
  </g>
</svg>
