<svg id="Component_5_1" data-name="Component 5 – 1" xmlns="http://www.w3.org/2000/svg" xmlns:xlink="http://www.w3.org/1999/xlink" width="309.929" height="300.767" viewBox="0 0 309.929 300.767">
  <defs>
    <linearGradient id="linear-gradient" y1="0.5" x2="1" y2="0.5" gradientUnits="objectBoundingBox">
      <stop offset="0" stop-color="#f9b99d"/>
      <stop offset="1" stop-color="#f08e73"/>
    </linearGradient>
  </defs>
  <path id="Path_1766" data-name="Path 1766" d="M36.37,217.078C26.688,196.629,16.319,104.756,12.382,66.97a6.283,6.283,0,0,1,10.494-5.287c28.416,25.994,97.588,90.483,107.294,110.988a51.89,51.89,0,1,1-93.8,44.406Z" transform="translate(-12.345 19.999)" fill="#c9f1f4"/>
  <circle id="Ellipse_90" data-name="Ellipse 90" cx="124.444" cy="124.444" r="124.444" transform="translate(9.162 58.963) rotate(-13.704)" fill="#9dccf5"/>
  <g id="Group_388" data-name="Group 388" transform="translate(65.024 57.735)">
    <g id="Group_387" data-name="Group 387">
      <path id="Path_1802" data-name="Path 1802" d="M111.456,82.37l-27.747,20.2c-.011,0-7.316,0-11.4-6.135-.136-.2-.271-.417-.4-.637a16.15,16.15,0,0,1-1.92-5.37c-1.452-8.066,2.492-11.936,6.609-13.791a21.107,21.107,0,0,1,7.74-1.716S90.273,68.8,97.1,69.135c5.989.3,9.49,2.9,11.527,5.714l.011.018h0v0A15.811,15.811,0,0,1,111.456,82.37Z" transform="translate(-33.794 -30.816)" fill="#671311"/>
      <path id="Path_1803" data-name="Path 1803" d="M121.058,99.957l-7.633,3.156-10.324,4.27c-.213.308-.422.616-.623.917-1.739,2.54-3.222,4.713-4.263,4.229a2.318,2.318,0,0,1-1.543-2.258v0l0-.007c.014-.118.025-.2.025-.224v0l.005,0-1.631-2.071-7.965-10.1L98.057,85.946l3.578-3.891s5.509,11,14.511,15.971A19.394,19.394,0,0,0,121.058,99.957Z" transform="translate(-20.554 -20.987)" fill="url(#linear-gradient)"/>
      <path id="Path_1804" data-name="Path 1804" d="M88.426,175.32s-2.314-.876-6.8-.187c-3.817.586-9.578,4.037-20.734,4.666a1.286,1.286,0,0,0-1.211,1.285h0a.782.782,0,0,0,.783.781H93.774Z" transform="translate(-41.399 49.544)" fill="#db6951"/>
      <path id="Path_1805" data-name="Path 1805" d="M149.982,172.025c-1.438-.234-6.2-.532-6.2-.532-4.412-1.424-5.491.686-22.5,1l-1.716,11.235s15.208,1.061,22.823.466l4.718-1.429s.183-.033.917-.838a5.306,5.306,0,0,0,.781-2.744l.456-.94a7.62,7.62,0,0,0,.454-2.619C151.524,175,151.133,172.253,149.982,172.025Z" transform="translate(4.108 46.608)" fill="url(#linear-gradient)"/>
      <path id="Path_1806" data-name="Path 1806" d="M68.619,54.171s-5.3,2.672-7.584,4.711a.584.584,0,0,1-.963-.315c-.283-1.434,1.454-3.845,4.912-5.908C67.686,53.8,68.619,54.171,68.619,54.171Z" transform="translate(-41.122 -43.326)" fill="#db6951"/>
      <path id="Path_1807" data-name="Path 1807" d="M74.48,52.8s-2.4,2.654-4.792,2.777c-1.58.081-6.535.414-8.814-2.795C62.22,49.836,74.48,52.8,74.48,52.8Z" transform="translate(-40.49 -44.222)" fill="#db6951"/>
      <path id="Path_1808" data-name="Path 1808" d="M55.17,52.823l-4.08,1.946a.665.665,0,0,0-.35.794h0a.732.732,0,0,0,.94.477l11.871-4.118H59.98Z" transform="translate(-48.213 -43.886)" fill="#db6951"/>
      <path id="Path_1809" data-name="Path 1809" d="M120.768,120.064l-.428,20.47-3.259,9.166L113.5,159.781l-3.921,11.031c1.723,23.47-5.407,29.151-13.492,56.668-.727,2.462-1.459,5.1-2.193,7.944l-.007.019-.19.773a3.392,3.392,0,0,1-3.291,2.577H64.751a.288.288,0,0,1-.264-.18.917.917,0,0,1,.792-1.26c10.369-.66,13.162-5.744,18.228-5.264,0-.033,2.888-43.813,4.454-53.317.806-4.9,6.345-11.753,6.345-11.753s2.286-44.693,3.335-51.059c1.364-8.3,12.652-16,12.652-16Z" transform="translate(-37.796 -7.382)" fill="url(#linear-gradient)"/>
      <path id="Path_1810" data-name="Path 1810" d="M99.472,128.07c-.743-.443-1.579-.945-2.51-1.514-3.622-2.2-7.726-.732-10.934.172.011,0,.039.005.084.012a9.578,9.578,0,0,1,8,10.005l-.81,14.331s-9.372,39.15-10.889,57.064c8.085-27.516,15.215-33.2,13.492-56.668l3.921-11.031v0l3.585-10.077C102.6,129.9,101.316,129.17,99.472,128.07Z" transform="translate(-24.124 11.956)" fill="#db6951"/>
      <path id="Path_1811" data-name="Path 1811" d="M153.092,191.694H95.276l11.155-40.355,56.891-2.912Z" transform="translate(-14.348 29.45)" fill="#267769"/>
      <path id="Path_1812" data-name="Path 1812" d="M145.545,163.511a19.914,19.914,0,0,0-18.7-13.423c-14.453-.09-44.757.748-51.9,5.067-6.769,4.094-6.38,16.475-7.631,21.726-.259,1.086,7.251,9.361,15.084,9.569l41.441,2.186a21.719,21.719,0,0,0,20.035-10.208h0a17.485,17.485,0,0,0,1.672-14.917Z" transform="translate(-35.602 30.708)" fill="#267769"/>
      <g id="Group_380" data-name="Group 380" transform="translate(30.208 183.681)">
        <path id="Path_1813" data-name="Path 1813" d="M162.659,185.975l-2.738,12.4c-7.661-.26-16.6-.412-25.764-.762-20.107-.771-41.341-2.5-52.754-8.434-8.434-4.384-13.643-9.988-14.672-16.246a21.829,21.829,0,0,1-.048-6.591A16.8,16.8,0,0,1,70,158.3V158.3c2.76-3.506,7.473-6.2,15.225-6.533,11.168-.477,17.168,3.485,25.07,9.25h0c7.756,5.658,17.344,13.057,35.433,19.709,3.87,1.426,8.129,2.814,12.842,4.145Q160.561,185.428,162.659,185.975Z" transform="translate(-66.456 -151.725)" fill="#319380"/>
      </g>
      <g id="Group_382" data-name="Group 382" transform="translate(44.524 44.527)">
        <path id="Path_1814" data-name="Path 1814" d="M112.926,95.959l-1.418,7.744v.007l-.392,2.147a13.481,13.481,0,0,1-6.99,9.5l-2.385,1.25a3.449,3.449,0,0,1-3.1.051l-.822-.4-7.092-3.414a6.074,6.074,0,0,1-2.166-1.763l-8.275-10.8a31.075,31.075,0,0,1-4.15-7.26,31.208,31.208,0,0,1-1.22-3.64,9.462,9.462,0,0,1,4.111-10.463l5.961-3.735c.165-.107.329-.206.5-.3a16.532,16.532,0,0,1,7.877-2.225,13.257,13.257,0,0,1,11.79,6.6l5.866,10.125,1.015,1.748.083.148A6.875,6.875,0,0,1,112.926,95.959Z" transform="translate(-74.591 -72.657)" fill="url(#linear-gradient)"/>
        <g id="Group_381" data-name="Group 381" transform="translate(27.703 6.199)">
          <path id="Path_1815" data-name="Path 1815" d="M99.054,86.71a2.636,2.636,0,0,1-.839.774c-1.573.912-3.849.048-5.586-1.946l0-.007a9.866,9.866,0,0,1-1.763-2.962c-.964-2.573-.605-5.09,1.015-6.024a2.609,2.609,0,0,1,1.074-.348h0c1.841-.2,4.131,1.3,5.579,3.8A9.214,9.214,0,0,1,99.593,82.7,5.1,5.1,0,0,1,99.054,86.71Z" transform="translate(-90.332 -76.179)" fill="url(#linear-gradient)"/>
          <path id="Path_1816" data-name="Path 1816" d="M97.371,80.3c1.382,2.385,1.269,5.033-.252,5.913s-3.874-.338-5.255-2.724-1.271-5.033.25-5.913S95.989,77.917,97.371,80.3Z" transform="translate(-89.903 -75.334)" fill="#db6951"/>
        </g>
      </g>
      <path id="Path_1817" data-name="Path 1817" d="M143.94,184.5l-9.783,6.8c-20.107-.771-41.341-2.5-52.754-8.434-8.434-4.384-13.643-9.988-14.672-16.246a21.829,21.829,0,0,1-.048-6.591L85.817,174.6a48.482,48.482,0,0,0,29.363,9.9Z" transform="translate(-36.249 38.269)" fill="#1c594f" opacity="0.5"/>
      <path id="Path_1818" data-name="Path 1818" d="M105.065,79.057h0a2.609,2.609,0,0,0-1.074.348c-1.621.935-1.98,3.451-1.015,6.024a17.339,17.339,0,0,0-1.976-1.7l-.007,0a13.894,13.894,0,0,0-14.708-.924s5.665.2,6.788,2.137c-9.38-1.927-16.788,8.265-16.788,8.265a.427.427,0,0,0-.025-.058.65.65,0,0,0-.03-.074c-.461-1.137-.957-2.232-1.316-3.416a12.635,12.635,0,0,1-.509-3.272A12.439,12.439,0,0,1,78.87,76.22c2.92-2.39,7.543-4.006,14.632-3.786,4.683.146,8.14,1.158,11.549,6.6Z" transform="translate(-30.215 -28.313)" fill="#671311"/>
      <g id="Group_383" data-name="Group 383" transform="translate(66.146 172.335)">
        <path id="Path_1819" data-name="Path 1819" d="M199.507,174.672c-9.189,13.1-50.7,14.607-66.374,14.7h-.077a13.507,13.507,0,0,1-9.921-4.338,19.285,19.285,0,0,1-3.838-20.061c.18-.463.37-.917.576-1.36a23.6,23.6,0,0,1,17.256-13.351c4.468-.806,9.042-1.716,13.639-2.536a145.378,145.378,0,0,1,18.824-2.364c7.488-.348,14.7.308,21.214,2.872C200.135,151.913,204.606,167.4,199.507,174.672Z" transform="translate(-63.226 -145.278)" fill="#267769"/>
        <path id="Path_1820" data-name="Path 1820" d="M147.859,184.046q-4.356.649-9.116,1.392c-1.274.2-2.566.408-3.884.616l-.679.111q-1.653.264-3.353.546-5.525.9-11.582,1.961h0s-15.315,2.339-22.956,2.371l-2.9-.407a5.287,5.287,0,0,1-2.874-1.369l-.026-.023a5.317,5.317,0,0,1-1-2.668l-.532-.9a7.582,7.582,0,0,1-.667-2.573c-1.858-.477-1.693-3.244-.565-3.562,1.411-.352,4.314-.751,4.314-.751,3.779-1.723,6.737-.642,14.643-.642,2.617,0,5.778-.116,9.688-.495.715-.231,1.422-.465,2.122-.708v0c3.515-1.206,6.853-2.55,10.035-4l.007,0q2.936-1.336,5.7-2.788c2.589-1.35,5.058-2.765,7.427-4.219C148.075,169.379,147.931,181.943,147.859,184.046Z" transform="translate(-86.876 -129.585)" fill="url(#linear-gradient)"/>
      </g>
      <path id="Path_1821" data-name="Path 1821" d="M182.376,152.643c-31.55-23.363-31.533-27.149-31.533-27.149a241.748,241.748,0,0,1,1.448-57.549c-17-.591-29.227-5.644-49.519-9.815l-.007,0h-.011c-.3-.062-.6-.125-.9-.183-.246-.051-.495-.1-.744-.15-1.892-.378-3.852-.744-5.9-1.1-2.64-.458-5.414-.894-8.342-1.3-.3-.044-.605-.084-.913-.125l-1.674.387a25.091,25.091,0,0,1-9.949.943l-7.246-1.056a14.771,14.771,0,0,0-4.868.1l-12.246,2.3a.563.563,0,0,1-.637-.378.872.872,0,0,1,.553-1.105L63.046,52.11s13.078-3.036,22.636-3.571c.209-.011.414-.021.623-.028,5.44-.25,10.97-.484,16.468-.674,17.323-.609,34.341-.792,47.3.373a34.623,34.623,0,0,1,7.165,1.345,50.158,50.158,0,0,1,6.8,2.716,1.688,1.688,0,0,1,.966,1.438l1.987,6.447s8.243,20.908,12.777,58.759C180.977,128.98,181.922,140.248,182.376,152.643Z" transform="translate(-49.292 -47.356)" fill="url(#linear-gradient)"/>
      <path id="Path_1822" data-name="Path 1822" d="M167.406,204.7c-3.193,1.243-9.225.871-15.6.531-5.058-.271-10.329-.521-14.555.069q-.4.055-.781.121a17.343,17.343,0,0,0-3.075.788,45.189,45.189,0,0,1-6.978,2.045c-.276.055-.551.106-.822.15a19.116,19.116,0,0,1-14.785-3.045l0-.016a61.443,61.443,0,0,0,2.195-7.846l0-.018a49.414,49.414,0,0,0,.03-18.131c-1.023-6.033-6.352-12.89-10.633-17.346-1.338-1.392-2.569-2.55-3.536-3.376-4.065-3.464-13.138-24.829-7.65-41.48a9.19,9.19,0,0,1,2.316-2.74h0a5.886,5.886,0,0,1,1.33-.792v0c0,.026-.011.106-.025.224l0,.007v0a2.318,2.318,0,0,0,1.543,2.258c1.165.542,2.884-2.239,4.886-5.146.143-.208.285-.417.431-.627a20.837,20.837,0,0,1,3.676-4.273,16.412,16.412,0,0,1,2.7-1.707c2.328-1.181,4.534-1.709,6.235-2.749,1.741-1.059,2.953-2.657,3.226-6.033v0c.028-5.171.252-17.411,1.686-18.243,0,0,1.4,2.078,3.606,4.995v0c4.567,6.037,12.587,15.672,18.787,17.918a7.21,7.21,0,0,0,2.478.48c5.1-.062,5.1-4.606,5.1-4.618s2.251.338,2.606,2.122a14.144,14.144,0,0,1-.268,4.585s-.521,20.072,3.757,28.553,12.165,46.765,14.206,59.561a8.913,8.913,0,0,1,1.441,1.547C173.89,196.468,173.179,202.459,167.406,204.7Z" transform="translate(-18.729 -24.575)" fill="#f3fde6"/>
      <path id="Path_1823" data-name="Path 1823" d="M145.8,196.6c-3.194,1.241-9.227.869-15.6.53l0,0c11.26-4.284,9.174-28.887,1.241-38.505s-17.305-30.982-11.931-45.366a31.93,31.93,0,0,0,2.057-11.3c0-.887-.039-1.746-.109-2.569a32.27,32.27,0,0,0-1.445-7.244,7.165,7.165,0,0,0,2.478.479c5.1-.058,5.1-4.606,5.1-4.616s2.253.338,2.608,2.122a14.151,14.151,0,0,1-.266,4.583,123.262,123.262,0,0,0,1.167,19.347v0a33.032,33.032,0,0,0,2.589,9.206c4.278,8.479,12.165,46.765,14.206,59.561C152.388,186.6,152.388,194.036,145.8,196.6Z" transform="translate(2.872 -16.466)" fill="#e0e8d4" opacity="0.5"/>
      <path id="Path_1824" data-name="Path 1824" d="M138.629,118.34c-1.355-2.619-2.828-14-2.828-14a10.924,10.924,0,0,1-6.705,1.9c-12.094-.781-20.911-23.511-21.05-23.872.167.32,10.669,20.32,20.941,21.3,2.925.282,5.831-.98,8.476-4.676A123.263,123.263,0,0,0,138.629,118.34Z" transform="translate(-4.644 -20.75)" fill="#e0e8d4" opacity="0.5"/>
      <path id="Path_1825" data-name="Path 1825" d="M207.346,168.022a11.237,11.237,0,0,1-.055,1.334c-.359,3.441-3.381,7.165-6.709,10.29A48.776,48.776,0,0,1,185.1,189.4c-11.769,4.65-27.555,6.22-55.073,10.334L116.3,202c0-.044,0-.088-.007-.132a20.611,20.611,0,0,0-1.92-7.415,24.326,24.326,0,0,0-2.7-4.477c-.454-.6-.836-1.038-1.074-1.3-.165-.183-.26-.282-.26-.282s.894-.436,4.083-2.038c2.056-1.03,5.065-2.547,9.4-4.734.352-.271.7-.539,1.052-.806,4.588-3.53,8.782-6.92,12.649-10.105,14.152-11.638,23.923-20.478,32.529-22.988,2.455-.72,4.9-1.283,7.261-1.734.762-.144,1.521-.276,2.265-.4a24.021,24.021,0,0,1,18.8,4.907,23.677,23.677,0,0,1,8.756,15.074A17.931,17.931,0,0,1,207.346,168.022Z" transform="translate(-2.902 27.058)" fill="#319380"/>
      <path id="Path_1826" data-name="Path 1826" d="M108.249,146l-.729,1.253-2.492,4.28s-1.015-.523-3.552-2.015c-1.072-.627-2.416-1.429-4.072-2.437-3.622-2.2-7.726-.732-10.934.172h0a16.348,16.348,0,0,1-2.133.491,3.163,3.163,0,0,1-2.276-.311c-.4-9.766-.2-18.437,0-24.625.6-20.222,17.066-24.341,17.321-24.4a8.148,8.148,0,0,0-1.206,1.151,8.972,8.972,0,0,0-1.11,1.589c-2.716,8.247-1.866,17.647.183,25.457l.007.032c2.085,7.95,5.406,14.243,7.457,15.991C105.676,143.447,106.912,144.605,108.249,146Z" transform="translate(-24.567 -8.565)" fill="#f3fde6"/>
      <path id="Path_1827" data-name="Path 1827" d="M98,85.987a.122.122,0,0,1-.049-.009.138.138,0,0,1-.079-.178A6.669,6.669,0,0,0,95.3,78.086c-1.436-1.051-2.888-1.311-3.7-.667a.137.137,0,1,1-.171-.215c.908-.725,2.49-.466,4.028.66A6.939,6.939,0,0,1,98.13,85.9.138.138,0,0,1,98,85.987Z" transform="translate(-17.307 -24.982)" fill="#db6951"/>
      <path id="Path_1828" data-name="Path 1828" d="M87.045,57.923l-.007,0h-.011c-.542-.114-1.089-.224-1.646-.333-4.34-.862-9.046-1.679-14.24-2.4a7.4,7.4,0,0,1-1.155-4.468,7.13,7.13,0,0,1,.546-2.386l.044-.028c4.384-.2,8.826-.392,13.261-.558q1.605-.061,3.207-.116A10.836,10.836,0,0,0,87.045,57.923Z" transform="translate(-33.564 -47.148)" fill="#fff"/>
      <path id="Path_1829" data-name="Path 1829" d="M87.039,94.22a.088.088,0,0,1-.079-.048l-2.737-4.937a.091.091,0,0,1,.16-.088l2.705,4.88c.41-.069,2.754-.533,3.117-2.221a.092.092,0,1,1,.18.039c-.422,1.969-3.215,2.357-3.333,2.372Z" transform="translate(-22.756 -15.634)" fill="#db6951"/>
      <path id="Path_1830" data-name="Path 1830" d="M87.747,96.98a.184.184,0,0,1-.171-.118.186.186,0,0,1,.106-.238A7.145,7.145,0,0,0,91.807,92a.183.183,0,1,1,.357.081,7.384,7.384,0,0,1-4.352,4.891A.165.165,0,0,1,87.747,96.98Z" transform="translate(-20.208 -13.542)" fill="#db6951"/>
      <path id="Path_1831" data-name="Path 1831" d="M84.2,86.611a6.568,6.568,0,0,1-5.067,3.833A6.584,6.584,0,0,1,81,87.484,6.362,6.362,0,0,1,84.2,86.611Z" transform="translate(-26.613 -17.525)" fill="#db6951"/>
      <g id="Group_384" data-name="Group 384" transform="translate(50.042 65.257)">
        <path id="Path_1832" data-name="Path 1832" d="M83,85.352a.612.612,0,0,1-.271.292.656.656,0,0,1-.07.033l-.055.023c-.246.1-.5.19-.748.3l-.359.176-.183.088c-.06.03-.114.067-.172.1l-.345.206c-.116.07-.22.15-.333.227a7.041,7.041,0,0,0-.627.5,6.579,6.579,0,0,0-1.045,1.235l-.111.172-.1.176c-.069.118-.123.241-.183.366a4.623,4.623,0,0,0-.268.755l0,.023a.205.205,0,0,1-.132.146.223.223,0,0,1-.118.007.205.205,0,0,1-.157-.224,5.344,5.344,0,0,1,.512-1.726,7.251,7.251,0,0,1,.984-1.517,8.25,8.25,0,0,1,.634-.656c.113-.1.22-.208.341-.3l.359-.28c.058-.044.116-.1.18-.139l.19-.125.382-.248c.264-.155.532-.294.8-.44a.644.644,0,0,1,.894.836Z" transform="translate(-77.726 -84.435)" fill="#4d0e0d"/>
      </g>
      <g id="Group_385" data-name="Group 385" transform="translate(60.045 58.328)">
        <path id="Path_1833" data-name="Path 1833" d="M91.849,80.76a.232.232,0,0,1-.216.227l-.023,0-.512.033a5.012,5.012,0,0,0-.51.051l-.5.077-.125.018-.125.03-.248.058a9.349,9.349,0,0,0-1.9.667,9.458,9.458,0,0,0-1.709,1.038c-.264.2-.516.417-.759.637-.116.118-.238.227-.343.348-.06.058-.111.118-.162.176a.711.711,0,0,0-.077.088c-.021.028-.051.062-.062.081a.641.641,0,0,1-.894.153.635.635,0,0,1-.155-.891.727.727,0,0,1,.048-.062l.023-.023.109-.118c.037-.035.074-.069.107-.1.069-.069.139-.132.211-.194.139-.125.287-.238.433-.356q.446-.341.913-.63a10.405,10.405,0,0,1,1.978-.957,9.987,9.987,0,0,1,2.115-.519l.268-.037.136-.019L90,80.536l.539-.028a3.928,3.928,0,0,1,.539,0l.54.014A.233.233,0,0,1,91.849,80.76Z" transform="translate(-83.41 -80.498)" fill="#4d0e0d"/>
      </g>
      <path id="Path_1834" data-name="Path 1834" d="M88.911,95.349a.092.092,0,0,1-.09-.084.091.091,0,0,1,.083-.1,3.226,3.226,0,0,0,1.8-1.255.092.092,0,0,1,.13-.009.09.09,0,0,1,.009.128,3.3,3.3,0,0,1-1.92,1.318Z" transform="translate(-19.253 -12.002)" fill="#db6951"/>
      <path id="Path_1835" data-name="Path 1835" d="M123.109,99.96q-.739,5.8-1.807,11.547-.523,2.875-1.1,5.739c-.4,1.908-.825,3.81-1.278,5.707-.9,3.794-1.88,7.575-3.1,11.285-.609,1.855-1.262,3.7-2,5.512a35.174,35.174,0,0,1-2.6,5.273l-.058.093-.093.026a14.556,14.556,0,0,1-3.662.537,20.215,20.215,0,0,1-3.661-.329,27.661,27.661,0,0,1-3.534-.945A24.812,24.812,0,0,1,96.842,143a29.33,29.33,0,0,0,3.42,1.23,27.459,27.459,0,0,0,3.536.785,21.187,21.187,0,0,0,3.592.218,14.022,14.022,0,0,0,3.508-.607l-.15.12a56.955,56.955,0,0,0,4.407-10.718c.6-1.848,1.111-3.72,1.642-5.588s1.008-3.754,1.473-5.641.9-3.782,1.323-5.681q.655-2.843,1.251-5.7C121.632,107.607,122.4,103.79,123.109,99.96Z" transform="translate(-13.157 -7.381)" fill="#e0e8d4" opacity="0.5"/>
      <path id="Path_1836" data-name="Path 1836" d="M104.926,133.954s5.95,21.418,34.818,21.255c0,0-21.832,0-30.683-21.255,0,0,2.721,11.978,16.364,18.52C115.188,147.634,113.05,146.845,104.926,133.954Z" transform="translate(-7.014 18.452)" fill="#e0e8d4" opacity="0.5"/>
      <path id="Path_1837" data-name="Path 1837" d="M183.941,145.909c-2.364.451-4.806,1.014-7.261,1.734-8.606,2.51-18.377,11.35-32.529,22.988a50.558,50.558,0,0,1-5.855-5.581,14.364,14.364,0,0,0-10.361-4.44c-22.481-.044-26.32-6.957-26.32-6.957A19.116,19.116,0,0,0,116.4,156.7c.271-.044.546-.1.822-.15A45.192,45.192,0,0,0,124.2,154.5a17.341,17.341,0,0,1,3.075-.788q.385-.066.781-.121a73.768,73.768,0,0,1,13.118-.146l1.436.077c6.371.34,12.4.711,15.6-.531a7.767,7.767,0,0,0,5.011-5.343,157.174,157.174,0,0,1,16.7-2.242,10.543,10.543,0,0,1,4.025.5Z" transform="translate(-9.53 27.136)" fill="#1c594f" opacity="0.5"/>
      <path id="Path_1838" data-name="Path 1838" d="M94.821,81.861c-10.545-1.36-19.354,7.6-19.354,7.6S82.875,79.27,92.255,81.2c-1.123-1.934-6.788-2.137-6.788-2.137s7.388-4.423,14.708.924c-3.316-1.547-9.226-1.668-9.226-1.668S94.4,80.7,94.821,81.861Z" transform="translate(-29.401 -24.568)" fill="#db6951" opacity="0.5"/>
      <path id="Path_1839" data-name="Path 1839" d="M139.29,171.9c-.348.268-.7.535-1.052.806-4.336,2.188-7.346,3.7-9.4,4.734-19.415-6.834-29.429-14.57-37.471-20.441Z" transform="translate(-17.319 35.967)" fill="#1c594f" opacity="0.5"/>
      <path id="Path_1840" data-name="Path 1840" d="M99.039,102.033c-1.739,2.54-3.222,4.713-4.263,4.229A2.318,2.318,0,0,1,93.233,104v0l0-.007c.014-.118.025-.2.025-.224v0l.005,0-1.631-2.071a13.463,13.463,0,0,0,6.528-9.243l.392-2.147Z" transform="translate(-17.114 -14.721)" fill="#db6951"/>
      <path id="Path_1841" data-name="Path 1841" d="M113.866,151.726c-.445,2.042-2.075,3.173-3.661,4.273-2.323,1.612-4.329,3-3.011,7.015,2.517,7.659,2.114,10.769,2.1,10.9a.38.38,0,0,1-.373.326.286.286,0,0,1-.055-.005.377.377,0,0,1-.32-.426c.005-.03.384-3.108-2.064-10.554-1.492-4.548,1.052-6.315,3.3-7.872,1.424-.989,2.786-1.934,3.268-3.5C113.315,151.832,113.59,151.781,113.866,151.726Z" transform="translate(-6.174 31.957)" fill="#fff"/>
      <path id="Path_1842" data-name="Path 1842" d="M121.953,168.988a11.862,11.862,0,0,1-1.248,3.768.377.377,0,0,1-.516.137.376.376,0,0,1-.139-.516,11.158,11.158,0,0,0,1.16-3.527,7.444,7.444,0,0,0-2.08-6.693c-2.892-2.906-3.143-8.279-2.906-11.989.255-.046.516-.084.781-.123-.241,3.585-.048,8.859,2.659,11.58A8.268,8.268,0,0,1,121.953,168.988Z" transform="translate(1.52 30.681)" fill="#fff"/>
      <path id="Path_1843" data-name="Path 1843" d="M205.6,158.2a11.243,11.243,0,0,1-.055,1.334c-.359,3.441-3.381,7.165-6.709,10.29a48.776,48.776,0,0,1-15.479,9.757c-11.769,4.65-27.555,6.22-55.073,10.334l-13.727,2.258c0-.044,0-.088-.007-.132a20.61,20.61,0,0,0-1.92-7.415C126.956,183.5,178.457,178.175,205.6,158.2Z" transform="translate(-1.158 36.879)" fill="#1c594f" opacity="0.5"/>
      <path id="Path_1844" data-name="Path 1844" d="M134.8,116.479c-.007.326-.194,4.541-5.1,4.6a7.21,7.21,0,0,1-2.478-.48c-6.19-2.242-14.187-11.844-18.759-17.881.669.788,12.17,14.169,22.689,12.381-.884-8.986-7.034-41.941-9.882-56.978-.85-4.486-1.4-7.374-1.44-7.561l.018.021a1.7,1.7,0,0,1,.19.693l1.987,6.447S130.269,78.628,134.8,116.479Z" transform="translate(-4.326 -44.922)" fill="#db6951"/>
      <path id="Path_1845" data-name="Path 1845" d="M130.515,64.19a12.377,12.377,0,0,1-.744,3.548c-17-.591-29.227-5.644-49.519-9.815a10.836,10.836,0,0,1,0-10.294s-1.084,6.952,2.156,9.641C88.173,58.041,118.924,65.839,130.515,64.19Z" transform="translate(-26.771 -47.148)" fill="#db6951"/>
      <path id="Path_1846" data-name="Path 1846" d="M99.078,84.417c-6.1.924-7.379-2.716-7.441-2.92,1.737,1.994,4.013,2.858,5.586,1.946a2.636,2.636,0,0,0,.839-.774Z" transform="translate(-17.113 -21.411)" fill="#db6951" opacity="0.5"/>
      <path id="Path_1847" data-name="Path 1847" d="M84.946,87.869,80.09,91.7l-2.207-1.931a.205.205,0,0,0,.132-.146l0-.023a4.622,4.622,0,0,1,.268-.755c.06-.125.114-.248.183-.366l.1-.176.111-.172A6.579,6.579,0,0,1,79.72,86.9a7.042,7.042,0,0,1,.627-.5c.113-.077.216-.157.333-.227l.345-.206c.058-.032.113-.069.172-.1l.183-.088.359-.176c.25-.106.5-.2.748-.3l.055-.023a.653.653,0,0,0,.07-.033.612.612,0,0,0,.271-.292Z" transform="translate(-27.565 -18.783)" fill="#db6951" opacity="0.25"/>
      <path id="Path_1848" data-name="Path 1848" d="M91.085,83.617,85.8,87.329l-2.232-3.115a.641.641,0,0,0,.894-.153c.011-.019.04-.053.062-.081a.712.712,0,0,1,.077-.088c.051-.058.1-.118.162-.176.106-.121.227-.231.343-.348.243-.22.495-.436.759-.637a9.457,9.457,0,0,1,1.709-1.038,9.349,9.349,0,0,1,1.9-.667l.248-.058.125-.03.125-.018.5-.077a3.254,3.254,0,0,1,.338-.037Z" transform="translate(-23.247 -21.937)" fill="#db6951" opacity="0.25"/>
      <g id="Group_386" data-name="Group 386" transform="translate(62.528 61.642)">
        <path id="Path_1849" data-name="Path 1849" d="M90.176,82.389a6.023,6.023,0,0,1-5.355,3.965,3.912,3.912,0,0,1,.825-2.21A6.014,6.014,0,0,1,90.176,82.389Z" transform="translate(-84.821 -82.382)" fill="#db6951"/>
      </g>
      <path id="Path_1850" data-name="Path 1850" d="M106.521,92.4l-.778,4.243-.641,3.5v.007l-.392,2.147a13.443,13.443,0,0,1-3.277,6.623c-6.341-3.3-5.329-8.842-6.253-14.252A24.912,24.912,0,0,0,83.019,77.789a13.3,13.3,0,0,1,11.417,2.2l.007,0a17.343,17.343,0,0,1,1.976,1.7,9.865,9.865,0,0,0,1.763,2.962l0,.007c1.737,1.994,4.013,2.858,5.586,1.946a2.119,2.119,0,0,0,.213-.141,2.553,2.553,0,0,0,.627-.634l1.015,1.748.083.148A6.875,6.875,0,0,1,106.521,92.4Z" transform="translate(-23.662 -24.569)" fill="#db6951" opacity="0.15"/>
      <path id="Path_1851" data-name="Path 1851" d="M110.2,98.026c-1.7,1.04-3.907,1.568-6.235,2.749A32.29,32.29,0,0,1,96.69,93.06l.778-4.243a6.875,6.875,0,0,0-.811-4.676l-.083-.148-1.015-1.748a2.552,2.552,0,0,1-.627.634l.759-.824S101.2,93.056,110.2,98.026Z" transform="translate(-14.609 -20.987)" fill="#db6951" opacity="0.25"/>
      <path id="Path_1852" data-name="Path 1852" d="M132.095,178.315a23.733,23.733,0,0,0-4.794-8.379c-3.152,1.434-6.462,2.765-9.94,3.958v0l7.432-.866a3.6,3.6,0,0,1,3.773,2.251l.048.12a3.6,3.6,0,0,1-2.341,4.725c-7.1,2.128-18.14,5.151-24.593,5.487-10.079.528-13.323-2.086-13.323-2.086a5.317,5.317,0,0,0,1,2.668l.026.023a5.287,5.287,0,0,0,2.874,1.369l2.9.407c7.642-.032,22.956-2.371,22.956-2.371h0q6.059-1.061,11.582-1.961c1.111-.183,2.212-.366,3.3-.537l0,0A19.751,19.751,0,0,0,132.095,178.315Z" transform="translate(-19.605 45.796)" fill="#db6951" opacity="0.25"/>
      <path id="Path_1853" data-name="Path 1853" d="M198.374,150.5c-12.8,1.536-36.742,10.977-50.619,21.957a96.184,96.184,0,0,1-35.809,17.488l-.275.03c-.454-.6-.836-1.038-1.074-1.3-.165-.183-.26-.282-.26-.282s.894-.436,4.083-2.038c2.056-1.03,5.065-2.547,9.4-4.734.352-.271.7-.539,1.052-.806,4.588-3.53,8.782-6.92,12.649-10.105,14.152-11.638,23.923-20.478,32.529-22.988,2.455-.72,4.9-1.283,7.261-1.734.762-.144,1.521-.276,2.265-.4A24.021,24.021,0,0,1,198.374,150.5Z" transform="translate(-2.902 27.058)" fill="#fff" opacity="0.1"/>
      <path id="Path_1854" data-name="Path 1854" d="M144.419,180.927s-32.141-6.031-47.9-18.2-28.05-4.426-28.05-4.426V158.3c2.76-3.506,7.473-6.2,15.225-6.533,11.168-.477,17.168,3.485,25.07,9.25h0c7.756,5.658,17.344,13.057,35.433,19.709C144.342,180.859,144.419,180.927,144.419,180.927Z" transform="translate(-34.72 31.957)" fill="#fff" opacity="0.1"/>
      <path id="Path_1855" data-name="Path 1855" d="M108.629,74.849c-.231-.282-2.951-3.412-11.341-3.138C88.5,72,86.815,81.22,86.815,81.22s-.466.093-8.256.933-6.246,14.278-6.246,14.278c-.136-.2-.271-.417-.4-.637a16.15,16.15,0,0,1-1.92-5.37c-1.452-8.066,2.492-11.936,6.609-13.791a21.107,21.107,0,0,1,7.74-1.716S90.273,68.8,97.1,69.135C103.091,69.436,106.591,72.035,108.629,74.849Z" transform="translate(-33.794 -30.816)" fill="#b4100c" opacity="0.15"/>
      <path id="Path_1856" data-name="Path 1856" d="M91.824,72.386v0l0,0Z" transform="translate(-16.974 -28.335)" fill="#b4100c"/>
      <path id="Path_1857" data-name="Path 1857" d="M101.589,133.808l-.729,1.253-2.492,4.28s-1.015-.523-3.552-2.015c-1.36-8.279-4.072-22.113-4.224-22.884,2.085,7.95,5.406,14.243,7.457,15.991C99.016,131.258,100.251,132.416,101.589,133.808Z" transform="translate(-17.906 3.624)" fill="#751724" opacity="0.5"/>
      <path id="Path_1858" data-name="Path 1858" d="M99.379,98.4a8.148,8.148,0,0,0-1.206,1.151s-14.87,6.83-14.643,27.078c.128,11.172.5,17.6.8,21.11a3.163,3.163,0,0,1-2.276-.311c-.4-9.766-.2-18.437,0-24.625C82.662,102.584,99.124,98.464,99.379,98.4Z" transform="translate(-24.567 -8.565)" fill="#fff" opacity="0.15"/>
    </g>
  </g>
</svg>
